<mxfile host="Electron" modified="2023-10-31T09:40:38.455Z" agent="Mozilla/5.0 (Macintosh; Intel Mac OS X 10_15_7) AppleWebKit/537.36 (KHTML, like Gecko) draw.io/22.0.3 Chrome/114.0.5735.289 Electron/25.8.4 Safari/537.36" etag="KuJhwvjCYAq3L7wqzckb" version="22.0.3" type="device">
  <diagram name="Pagina-1" id="b2AKvqbQ1smfeD_xuYZB">
    <mxGraphModel dx="964" dy="1006" grid="1" gridSize="10" guides="1" tooltips="1" connect="1" arrows="1" fold="1" page="1" pageScale="1" pageWidth="827" pageHeight="1169" math="0" shadow="0">
      <root>
        <mxCell id="0" />
        <mxCell id="1" parent="0" />
        <mxCell id="lYK_am5DJL0U4OZlny2Y-1" value="InterfacciaCliente" style="shape=umlFrame;whiteSpace=wrap;html=1;pointerEvents=0;width=120;height=30;fillColor=#ff9933;strokeWidth=2;strokeColor=#FF9933;fontStyle=1;fontColor=#FFFFFF;" parent="1" vertex="1">
          <mxGeometry x="139" y="140" width="550" height="320" as="geometry" />
        </mxCell>
        <mxCell id="lYK_am5DJL0U4OZlny2Y-4" value="" style="shape=folder;fontStyle=1;spacingTop=10;tabWidth=90;tabHeight=30;tabPosition=left;html=1;whiteSpace=wrap;strokeColor=#FF9933;strokeWidth=2;" parent="1" vertex="1">
          <mxGeometry x="494" y="300" width="135" height="80" as="geometry" />
        </mxCell>
        <mxCell id="lYK_am5DJL0U4OZlny2Y-5" value="ViewNoleggia" style="text;html=1;align=center;verticalAlign=middle;resizable=0;points=[];autosize=1;strokeColor=none;fillColor=none;fontSize=11;fontColor=#FF9933;fontStyle=1" parent="1" vertex="1">
          <mxGeometry x="494" y="300" width="90" height="30" as="geometry" />
        </mxCell>
        <mxCell id="lYK_am5DJL0U4OZlny2Y-6" value="" style="shape=folder;fontStyle=1;spacingTop=10;tabWidth=80;tabHeight=30;tabPosition=left;html=1;whiteSpace=wrap;strokeColor=#FF9933;strokeWidth=2;" parent="1" vertex="1">
          <mxGeometry x="224" y="300" width="135" height="80" as="geometry" />
        </mxCell>
        <mxCell id="lYK_am5DJL0U4OZlny2Y-7" value="ViewStorico" style="text;html=1;align=center;verticalAlign=middle;resizable=0;points=[];autosize=1;strokeColor=none;fillColor=none;fontSize=11;fontStyle=1;fontColor=#ff9933;" parent="1" vertex="1">
          <mxGeometry x="217.75" y="300" width="90" height="30" as="geometry" />
        </mxCell>
        <mxCell id="lYK_am5DJL0U4OZlny2Y-12" value="" style="endArrow=open;endSize=16;endFill=0;html=1;rounded=0;exitX=0.25;exitY=1;exitDx=0;exitDy=0;exitPerimeter=0;entryX=0;entryY=0;entryDx=135;entryDy=55;entryPerimeter=0;" parent="1" source="lYK_am5DJL0U4OZlny2Y-2" target="lYK_am5DJL0U4OZlny2Y-6" edge="1">
          <mxGeometry width="160" relative="1" as="geometry">
            <mxPoint x="389" y="260" as="sourcePoint" />
            <mxPoint x="409" y="320" as="targetPoint" />
            <Array as="points">
              <mxPoint x="393" y="355" />
            </Array>
          </mxGeometry>
        </mxCell>
        <mxCell id="lYK_am5DJL0U4OZlny2Y-13" value="" style="endArrow=open;endSize=16;endFill=0;html=1;rounded=0;exitX=0.25;exitY=1;exitDx=0;exitDy=0;exitPerimeter=0;entryX=0;entryY=0;entryDx=0;entryDy=55;entryPerimeter=0;" parent="1" target="lYK_am5DJL0U4OZlny2Y-4" edge="1">
          <mxGeometry width="160" relative="1" as="geometry">
            <mxPoint x="453" y="260" as="sourcePoint" />
            <mxPoint x="419" y="355" as="targetPoint" />
            <Array as="points">
              <mxPoint x="453" y="355" />
            </Array>
          </mxGeometry>
        </mxCell>
        <mxCell id="lYK_am5DJL0U4OZlny2Y-14" value="GestioneCliente" style="shape=umlFrame;whiteSpace=wrap;html=1;pointerEvents=0;width=110;height=30;fillColor=#82b366;strokeColor=#82b366;strokeWidth=2;fontStyle=1;fontColor=#FFFFFF;" parent="1" vertex="1">
          <mxGeometry x="241.5" y="530" width="370" height="210" as="geometry" />
        </mxCell>
        <mxCell id="lYK_am5DJL0U4OZlny2Y-29" value="&lt;p style=&quot;margin:0px;margin-top:4px;text-align:center;&quot;&gt;&lt;b&gt;GestioneClienteController&lt;/b&gt;&lt;/p&gt;&lt;hr size=&quot;1&quot;&gt;&lt;p style=&quot;margin:0px;margin-left:4px;&quot;&gt;+ aggiungiAlCarrello(Prodotto)&lt;/p&gt;&lt;p style=&quot;margin:0px;margin-left:4px;&quot;&gt;+ rimuoviDalCarrello(Prodotto)&lt;/p&gt;&lt;p style=&quot;margin:0px;margin-left:4px;&quot;&gt;+ cerca(Date, String)&lt;/p&gt;&lt;p style=&quot;margin:0px;margin-left:4px;&quot;&gt;+ concludiOrdine()&lt;/p&gt;&lt;p style=&quot;margin:0px;margin-left:4px;&quot;&gt;+ passwordDimenticata()&lt;/p&gt;" style="verticalAlign=top;align=left;overflow=fill;fontSize=12;fontFamily=Helvetica;html=1;whiteSpace=wrap;" parent="1" vertex="1">
          <mxGeometry x="311.5" y="590" width="235" height="120" as="geometry" />
        </mxCell>
        <mxCell id="lYK_am5DJL0U4OZlny2Y-30" value="Use" style="endArrow=open;endSize=12;dashed=1;html=1;rounded=0;exitX=0;exitY=0;exitDx=0;exitDy=42.5;exitPerimeter=0;entryX=0;entryY=0.5;entryDx=0;entryDy=0;" parent="1" source="lYK_am5DJL0U4OZlny2Y-6" target="lYK_am5DJL0U4OZlny2Y-29" edge="1">
          <mxGeometry x="-0.1884" y="-1" width="160" relative="1" as="geometry">
            <mxPoint x="239" y="560" as="sourcePoint" />
            <mxPoint x="399" y="560" as="targetPoint" />
            <Array as="points">
              <mxPoint x="209" y="343" />
              <mxPoint x="209" y="650" />
            </Array>
            <mxPoint as="offset" />
          </mxGeometry>
        </mxCell>
        <mxCell id="lYK_am5DJL0U4OZlny2Y-31" value="Use" style="endArrow=open;endSize=12;dashed=1;html=1;rounded=0;exitX=0.75;exitY=1;exitDx=0;exitDy=0;exitPerimeter=0;entryX=1;entryY=0.5;entryDx=0;entryDy=0;" parent="1" source="lYK_am5DJL0U4OZlny2Y-4" target="lYK_am5DJL0U4OZlny2Y-29" edge="1">
          <mxGeometry x="-0.1884" y="-1" width="160" relative="1" as="geometry">
            <mxPoint x="482" y="280" as="sourcePoint" />
            <mxPoint x="548" y="558" as="targetPoint" />
            <Array as="points">
              <mxPoint x="595" y="650" />
            </Array>
            <mxPoint as="offset" />
          </mxGeometry>
        </mxCell>
        <mxCell id="lYK_am5DJL0U4OZlny2Y-32" value="Use" style="endArrow=open;endSize=12;dashed=1;html=1;rounded=0;entryX=0.5;entryY=0;entryDx=0;entryDy=0;" parent="1" source="lYK_am5DJL0U4OZlny2Y-2" target="lYK_am5DJL0U4OZlny2Y-29" edge="1">
          <mxGeometry x="-0.1884" y="-1" width="160" relative="1" as="geometry">
            <mxPoint x="407" y="400" as="sourcePoint" />
            <mxPoint x="359" y="670" as="targetPoint" />
            <Array as="points" />
            <mxPoint as="offset" />
          </mxGeometry>
        </mxCell>
        <mxCell id="lYK_am5DJL0U4OZlny2Y-33" value="Log" style="shape=umlFrame;whiteSpace=wrap;html=1;pointerEvents=0;width=78;height=30;fontStyle=1;strokeColor=#82b366;strokeWidth=2;fontColor=#FFFFFF;fillColor=#82b366;" parent="1" vertex="1">
          <mxGeometry x="307.75" y="850" width="237.5" height="180" as="geometry" />
        </mxCell>
        <mxCell id="lYK_am5DJL0U4OZlny2Y-34" value="&lt;p style=&quot;margin:0px;margin-top:4px;text-align:center;&quot;&gt;&lt;b&gt;Logger&lt;/b&gt;&lt;/p&gt;&lt;hr size=&quot;1&quot;&gt;&lt;p style=&quot;margin:0px;margin-left:4px;&quot;&gt;+ aggiungiVoce(voce)&lt;/p&gt;" style="verticalAlign=top;align=left;overflow=fill;fontSize=12;fontFamily=Helvetica;html=1;whiteSpace=wrap;" parent="1" vertex="1">
          <mxGeometry x="345.25" y="910" width="157.5" height="70" as="geometry" />
        </mxCell>
        <mxCell id="lYK_am5DJL0U4OZlny2Y-2" value="" style="shape=folder;fontStyle=1;spacingTop=10;tabWidth=90;tabHeight=30;tabPosition=left;html=1;whiteSpace=wrap;strokeColor=#FF9933;strokeWidth=2;" parent="1" vertex="1">
          <mxGeometry x="360.25" y="180" width="135" height="80" as="geometry" />
        </mxCell>
        <mxCell id="lYK_am5DJL0U4OZlny2Y-3" value="HomeCliente" style="text;html=1;align=center;verticalAlign=middle;resizable=0;points=[];autosize=1;strokeColor=none;fillColor=none;fontSize=11;fontStyle=1;fontColor=#FF9933;" parent="1" vertex="1">
          <mxGeometry x="360.25" y="180" width="90" height="30" as="geometry" />
        </mxCell>
        <mxCell id="juofUPzPbUdQotUkrBrY-1" value="Use" style="endArrow=open;endSize=12;dashed=1;html=1;rounded=0;exitX=0.508;exitY=1.005;exitDx=0;exitDy=0;exitPerimeter=0;" parent="1" source="lYK_am5DJL0U4OZlny2Y-14" edge="1">
          <mxGeometry x="-0.1884" y="-1" width="160" relative="1" as="geometry">
            <mxPoint x="428.5" y="740" as="sourcePoint" />
            <mxPoint x="430" y="850" as="targetPoint" />
            <Array as="points" />
            <mxPoint as="offset" />
          </mxGeometry>
        </mxCell>
      </root>
    </mxGraphModel>
  </diagram>
</mxfile>
